<svg width="132" height="40" viewBox="0 0 132 40" fill="none" xmlns="http://www.w3.org/2000/svg">
<path d="M15.4604 30.7429C21.5907 27.6933 24.4277 22.1344 24.4996 19.5002C26.4996 24.5 25.4615 28.1146 24.4996 31C22.4996 37 16.4996 40 10.9999 36.0002C9.99958 34.5 6.68314 35.1093 15.4604 30.7429Z" fill="#F2BEDD"/>
<path d="M30.5 10L1 38" stroke="#291E3E" stroke-width="0.5"/>
<path d="M49.3046 37.5939C48.243 37.5939 47.4274 37.3612 46.8578 36.8957C46.314 36.4302 46.0292 35.9648 46.0033 35.4993L45.9645 34.8399V22.6602C45.9645 20.6173 45.4337 19.3114 44.3721 18.7425C43.8284 18.4839 43.1552 18.3546 42.3525 18.3546C40.6954 18.3546 39.2066 19.014 37.8861 20.3329C36.5656 21.6258 35.9053 22.7895 35.9053 23.8239V37.5939H33.1866V18.1995H35.9053V22.6214C36.3455 21.5095 37.1611 20.4751 38.3521 19.5183C39.5432 18.5357 40.8508 18.0443 42.2748 18.0443C43.6989 18.0443 44.8511 18.1866 45.7315 18.471C46.6377 18.7296 47.298 19.1046 47.7122 19.5959C48.3595 20.3975 48.6832 21.4319 48.6832 22.699V34.8399C48.6832 35.5898 48.8256 36.1716 49.1104 36.5854C49.4211 36.9733 49.7318 37.1802 50.0425 37.206L50.4698 37.2836H51.6738V37.5939H49.3046Z" fill="#291E3E"/>
<path d="M83.1824 11.6539C83.6744 12.1452 83.9203 12.7787 83.9203 13.5545C83.9203 14.201 83.7779 14.8604 83.4931 15.5328L74.3272 38.8061L73.9 39L68.7733 22.7475L62.4426 38.8061L62.0154 39L53.3933 11.6539H56.6945L63.6466 34.6169L68.5791 22.1269L65.2779 11.6539H68.5791L75.5312 34.6169L83.0271 15.5328C83.3119 14.8863 83.4543 14.2139 83.4543 13.5157C83.4543 12.8175 83.2601 12.2745 82.8717 11.8866L83.1824 11.6539Z" fill="#291E3E"/>
<path d="M90.589 38.8061C89.5275 38.8061 88.7118 38.5733 88.1422 38.1079C87.5985 37.6424 87.3137 37.1769 87.2878 36.7115L87.2489 36.052V19.4116H89.9676V36.052C89.9676 36.802 90.11 37.3838 90.3949 37.7975C90.7056 38.1854 91.0033 38.3923 91.2881 38.4182L91.7542 38.4957H92.9582V38.8061H90.589ZM87.482 15.0673C87.1713 14.757 87.0159 14.3691 87.0159 13.9036C87.0159 13.4382 87.1713 13.0503 87.482 12.74C87.7927 12.4038 88.1811 12.2357 88.6471 12.2357C89.1132 12.2357 89.5016 12.4038 89.8123 12.74C90.1489 13.0503 90.3172 13.4382 90.3172 13.9036C90.3172 14.3691 90.1489 14.757 89.8123 15.0673C89.5016 15.3776 89.1132 15.5328 88.6471 15.5328C88.1811 15.5328 87.7927 15.3776 87.482 15.0673Z" fill="#291E3E"/>
<path d="M111.431 38.8061C110.369 38.8061 109.554 38.5733 108.984 38.1079C108.44 37.6424 108.156 37.1769 108.13 36.7115L108.091 36.052V23.8724C108.091 21.8295 107.56 20.5236 106.499 19.9547C105.955 19.6961 105.282 19.5668 104.479 19.5668C102.822 19.5668 101.333 20.2262 100.013 21.545C98.692 22.838 98.0318 24.0016 98.0318 25.036V38.8061H95.3131V19.4116H98.0318V23.8336C98.4719 22.7216 99.2876 21.6872 100.479 20.7305C101.67 19.7478 102.977 19.2565 104.401 19.2565C105.825 19.2565 106.978 19.3987 107.858 19.6832C108.764 19.9418 109.424 20.3167 109.839 20.808C110.486 21.6097 110.81 22.644 110.81 23.9111V36.052C110.81 36.802 110.952 37.3838 111.237 37.7975C111.548 38.1854 111.858 38.3923 112.169 38.4182L112.596 38.4957H113.8V38.8061H111.431Z" fill="#291E3E"/>
<path d="M118.018 29.3416C118.018 32.5481 118.575 34.9013 119.688 36.4011C120.827 37.901 122.316 38.6509 124.155 38.6509C126.744 38.6509 129.048 38.263 131.068 37.4872L131.184 37.7588C129.113 38.5604 126.77 38.9612 124.155 38.9612C121.565 38.9612 119.455 38.1854 117.824 36.6339C116.193 35.0823 115.377 32.6903 115.377 29.4579C115.377 26.2255 116.232 23.7172 117.94 21.9329C119.649 20.1486 121.824 19.2565 124.465 19.2565C126.589 19.2565 128.375 19.89 129.825 21.1571C131.275 22.4242 132 24.299 132 26.7815C132 26.9108 132 27.0401 132 27.1694H118.135C118.057 27.8676 118.018 28.5917 118.018 29.3416ZM129.359 26.8591C129.333 24.3766 128.854 22.5406 127.922 21.3511C126.99 20.1616 125.786 19.5668 124.31 19.5668C122.834 19.5668 121.514 20.2133 120.348 21.5062C119.209 22.7992 118.484 24.5835 118.173 26.8591H129.359Z" fill="#291E3E"/>
<path d="M24.0651 17.4516C24.7007 19.2771 25.0196 21.5628 25.0196 24.3107C25.0196 28.6347 24.1844 31.9406 22.516 34.2282C20.873 36.4909 18.7411 37.6223 16.1221 37.6223C13.5285 37.6223 11.4494 36.6175 9.88271 34.606C9.42112 34.0115 9.02798 33.3135 8.70134 32.512L6.87451 34.303C7.15225 34.6482 7.4476 34.9645 7.76445 35.2445C9.84359 37.0796 12.5154 37.9981 15.7759 37.9981C19.5508 37.9981 22.5668 36.8418 24.8279 34.5293C27.087 32.2167 28.2175 28.7977 28.2175 24.2723C28.2175 20.512 27.4801 17.605 26.0073 15.5475L24.0651 17.4516Z" fill="#291E3E"/>
<path d="M6.54415 33.0048L8.37098 31.2138C7.59252 29.3039 7.20134 26.8111 7.20134 23.7277C7.20134 19.3538 8.02282 16.0345 9.66579 13.7718C11.3361 11.5091 13.4681 10.3778 16.0616 10.3778C18.6552 10.3778 20.7343 11.396 22.301 13.4324C22.8878 14.1822 23.365 15.0892 23.7347 16.1515L25.6769 14.2474C25.3777 13.8274 25.0491 13.4401 24.6892 13.093C22.5846 11.0316 19.7466 10 16.177 10C12.6075 10 9.68144 11.1946 7.39497 13.582C5.13589 15.9463 4.00537 19.4151 4.00537 23.9904C4.00537 26.278 4.30071 28.2761 4.8914 29.9866C5.32561 31.1755 5.87914 32.1783 6.54415 33.0048Z" fill="#291E3E"/>
<path d="M6.60707 6H6.05821V0.472H4V0H8.66944V0.472H6.60707V6Z" fill="#291E3E"/>
<path d="M13.5019 0H12.953V6H13.5019V0Z" fill="#291E3E"/>
<path d="M18.2802 6V0H22.0349V0.472H18.8291V2.708H21.8644V3.18H18.8291V5.528H22.0765V6H18.2802Z" fill="#291E3E"/>
<path d="M32.1522 6H31.5576L27.3663 0.808V6H26.8175V0H27.4121L31.6033 5.192V0H32.1522V6Z" fill="#291E3E"/>
<path d="M36.9347 6V0H38.6478C39.4184 0 40.0782 0.12 40.627 0.36C41.1759 0.597334 41.5972 0.94 41.8911 1.388C42.1849 1.836 42.3318 2.37333 42.3318 3C42.3318 3.624 42.1849 4.16133 41.8911 4.612C41.5972 5.06 41.1759 5.404 40.627 5.644C40.0782 5.88133 39.4184 6 38.6478 6H36.9347ZM37.4836 5.528H38.6769C39.3283 5.528 39.8841 5.428 40.3443 5.228C40.8072 5.028 41.1606 4.74 41.4046 4.364C41.6485 3.98533 41.7705 3.53067 41.7705 3C41.7705 2.46667 41.6485 2.012 41.4046 1.636C41.1606 1.26 40.8072 0.972 40.3443 0.772C39.8841 0.572 39.3283 0.472 38.6769 0.472H37.4836V5.528Z" fill="#291E3E"/>
<path d="M46.7983 6H46.2204L48.8066 0H49.4137L52 6H51.4179L50.6819 4.268H47.5385L46.7983 6ZM47.7339 3.796H50.4865L49.1102 0.568L47.7339 3.796Z" fill="#291E3E"/>
</svg>
